<?xml version="1.0" encoding="UTF-8" standalone="no"?>
<!-- Created with Inkscape (http://www.inkscape.org/) -->

<svg
   xmlns:dc="http://purl.org/dc/elements/1.1/"
   xmlns:cc="http://creativecommons.org/ns#"
   xmlns:rdf="http://www.w3.org/1999/02/22-rdf-syntax-ns#"
   xmlns:svg="http://www.w3.org/2000/svg"
   xmlns="http://www.w3.org/2000/svg"
   xmlns:sodipodi="http://sodipodi.sourceforge.net/DTD/sodipodi-0.dtd"
   xmlns:inkscape="http://www.inkscape.org/namespaces/inkscape"
   id="svg2"
   version="1.1"
   inkscape:version="0.91 r13725"
   xml:space="preserve"
   width="445"
   height="300"
   viewBox="0 0 445 300"
   sodipodi:docname="time_fric_slope.pdf"><metadata
     id="metadata8"><rdf:RDF><cc:Work
         rdf:about=""><dc:format>image/svg+xml</dc:format><dc:type
           rdf:resource="http://purl.org/dc/dcmitype/StillImage" /></cc:Work></rdf:RDF></metadata><defs
     id="defs6"><clipPath
       clipPathUnits="userSpaceOnUse"
       id="clipPath18"><path
         d="M 0,0 356,0 356,240 0,240 0,0 Z"
         id="path20"
         inkscape:connector-curvature="0" /></clipPath><clipPath
       clipPathUnits="userSpaceOnUse"
       id="clipPath82"><path
         d="M 0.06,240 356,240 356,0.06 0.06,0.06 0.06,240 Z"
         id="path84"
         inkscape:connector-curvature="0" /></clipPath><clipPath
       clipPathUnits="userSpaceOnUse"
       id="clipPath88"><path
         d="M 0,0 356,0 356,240 0,240 0,0 Z"
         id="path90"
         inkscape:connector-curvature="0" /></clipPath><clipPath
       clipPathUnits="userSpaceOnUse"
       id="clipPath100"><path
         d="M 0,0 356,0 356,240 0,240 0,0 Z"
         id="path102"
         inkscape:connector-curvature="0" /></clipPath><clipPath
       clipPathUnits="userSpaceOnUse"
       id="clipPath116"><path
         d="M 0.06,240 356,240 356,0.06 0.06,0.06 0.06,240 Z"
         id="path118"
         inkscape:connector-curvature="0" /></clipPath><clipPath
       clipPathUnits="userSpaceOnUse"
       id="clipPath122"><path
         d="M 0,0 356,0 356,240 0,240 0,0 Z"
         id="path124"
         inkscape:connector-curvature="0" /></clipPath><clipPath
       clipPathUnits="userSpaceOnUse"
       id="clipPath134"><path
         d="M 0,0 356,0 356,240 0,240 0,0 Z"
         id="path136"
         inkscape:connector-curvature="0" /></clipPath></defs><sodipodi:namedview
     pagecolor="#ffffff"
     bordercolor="#666666"
     borderopacity="1"
     objecttolerance="10"
     gridtolerance="10"
     guidetolerance="10"
     inkscape:pageopacity="0"
     inkscape:pageshadow="2"
     inkscape:window-width="640"
     inkscape:window-height="480"
     id="namedview4"
     showgrid="false" /><g
     id="g10"
     inkscape:groupmode="layer"
     inkscape:label="time_fric_slope"
     transform="matrix(1.25,0,0,-1.25,0,300)"><g
       id="g12" /><g
       id="g14"><g
         id="g16"
         clip-path="url(#clipPath18)"><path
           d="m 38.5,22.398 3.148,0 m 305.704,0 -3.153,0"
           style="fill:none;stroke:#000000;stroke-width:0.5;stroke-linecap:butt;stroke-linejoin:miter;stroke-miterlimit:3.79999995;stroke-dasharray:none;stroke-opacity:1"
           id="path22"
           inkscape:connector-curvature="0" /><text
           transform="matrix(1,0,0,-1,26.5167,20.0648)"
           style="font-variant:normal;font-size:7px;font-family:f-0;-inkscape-font-specification:f-0-0;writing-mode:lr-tb;fill:#000000;fill-opacity:1;fill-rule:nonzero;stroke:none"
           id="text24"><tspan
             x="0 3.892"
             y="0"
             sodipodi:role="line"
             id="tspan26">10</tspan></text>
<path
           d="m 38.5,54.648 1.551,0 m 307.301,0 -1.551,0 M 38.5,73.5 l 1.551,0 m 307.301,0 -1.551,0 M 38.5,86.852 l 1.551,0 m 307.301,0 -1.551,0 M 38.5,97.25 l 1.551,0 m 307.301,0 -1.551,0 m -307.301,8.449 1.551,0 m 307.301,0 -1.551,0 m -307.301,7.199 1.551,0 m 307.301,0 -1.551,0 m -307.301,6.204 1.551,0 m 307.301,0 -1.551,0 m -307.301,5.5 1.551,0 m 307.301,0 -1.551,0 M 38.5,129.5 l 3.148,0 m 305.704,0 -3.153,0"
           style="fill:none;stroke:#000000;stroke-width:0.5;stroke-linecap:butt;stroke-linejoin:miter;stroke-miterlimit:3.79999995;stroke-dasharray:none;stroke-opacity:1"
           id="path28"
           inkscape:connector-curvature="0" /><text
           transform="matrix(1,0,0,-1,22.6249,127.165)"
           style="font-variant:normal;font-size:7px;font-family:f-0;-inkscape-font-specification:f-0-0;writing-mode:lr-tb;fill:#000000;fill-opacity:1;fill-rule:nonzero;stroke:none"
           id="text30"><tspan
             x="0 3.892 7.7839999"
             y="0"
             sodipodi:role="line"
             id="tspan32">100</tspan></text>
<path
           d="m 38.5,161.699 1.551,0 m 307.301,0 -1.551,0 M 38.5,180.551 l 1.551,0 m 307.301,0 -1.551,0 M 38.5,193.949 l 1.551,0 m 307.301,0 -1.551,0 M 38.5,204.301 l 1.551,0 m 307.301,0 -1.551,0 m -307.301,8.5 1.551,0 m 307.301,0 -1.551,0 m -307.301,7.148 1.551,0 m 307.301,0 -1.551,0 m -307.301,6.199 1.551,0 m 307.301,0 -1.551,0 m -307.301,5.5 1.551,0 m 307.301,0 -1.551,0 m -307.301,4.903 3.148,0 m 305.704,0 -3.153,0"
           style="fill:none;stroke:#000000;stroke-width:0.5;stroke-linecap:butt;stroke-linejoin:miter;stroke-miterlimit:3.79999995;stroke-dasharray:none;stroke-opacity:1"
           id="path34"
           inkscape:connector-curvature="0" /><text
           transform="matrix(1,0,0,-1,18.7331,234.215)"
           style="font-variant:normal;font-size:7px;font-family:f-0;-inkscape-font-specification:f-0-0;writing-mode:lr-tb;fill:#000000;fill-opacity:1;fill-rule:nonzero;stroke:none"
           id="text36"><tspan
             x="0 3.892 7.7839999 11.676"
             y="0"
             sodipodi:role="line"
             id="tspan38">1000</tspan></text>
<path
           d="m 38.5,22.398 0,3.153 m 0,211 0,-3.153"
           style="fill:none;stroke:#000000;stroke-width:0.5;stroke-linecap:butt;stroke-linejoin:miter;stroke-miterlimit:3.79999995;stroke-dasharray:none;stroke-opacity:1"
           id="path40"
           inkscape:connector-curvature="0" /><text
           transform="matrix(1,0,0,-1,37.5273,13.0648)"
           style="font-variant:normal;font-size:7px;font-family:f-0;-inkscape-font-specification:f-0-0;writing-mode:lr-tb;fill:#000000;fill-opacity:1;fill-rule:nonzero;stroke:none"
           id="text42"><tspan
             x="0"
             y="0"
             id="tspan44">1</tspan></text>
<path
           d="m 69.5,22.398 0,1.551 m 0,212.602 0,-1.551 m 18.102,-212.602 0,1.551 m 0,212.602 0,-1.551 M 100.5,22.398 l 0,1.551 m 0,212.602 0,-1.551 m 9.949,-212.602 0,1.551 m 0,212.602 0,-1.551 m 8.153,-212.602 0,1.551 m 0,212.602 0,-1.551 m 6.898,-212.602 0,1.551 m 0,212.602 0,-1.551 m 5.949,-212.602 0,1.551 m 0,212.602 0,-1.551 m 5.301,-212.602 0,1.551 m 0,212.602 0,-1.551 m 4.699,-212.602 0,3.153 m 0,211 0,-3.153"
           style="fill:none;stroke:#000000;stroke-width:0.5;stroke-linecap:butt;stroke-linejoin:miter;stroke-miterlimit:3.79999995;stroke-dasharray:none;stroke-opacity:1"
           id="path46"
           inkscape:connector-curvature="0" /><text
           transform="matrix(1,0,0,-1,138.532,13.0648)"
           style="font-variant:normal;font-size:7px;font-family:f-0;-inkscape-font-specification:f-0-0;writing-mode:lr-tb;fill:#000000;fill-opacity:1;fill-rule:nonzero;stroke:none"
           id="text48"><tspan
             x="0 3.892"
             y="0"
             sodipodi:role="line"
             id="tspan50">10</tspan></text>
<path
           d="m 172.449,22.398 0,1.551 m 0,212.602 0,-1.551 m 18.102,-212.602 0,1.551 m 0,212.602 0,-1.551 m 12.898,-212.602 0,1.551 m 0,212.602 0,-1.551 m 9.949,-212.602 0,1.551 m 0,212.602 0,-1.551 m 8.153,-212.602 0,1.551 m 0,212.602 0,-1.551 m 6.898,-212.602 0,1.551 m 0,212.602 0,-1.551 m 5.949,-212.602 0,1.551 m 0,212.602 0,-1.551 m 5.301,-212.602 0,1.551 m 0,212.602 0,-1.551 m 4.699,-212.602 0,3.153 m 0,211 0,-3.153"
           style="fill:none;stroke:#000000;stroke-width:0.5;stroke-linecap:butt;stroke-linejoin:miter;stroke-miterlimit:3.79999995;stroke-dasharray:none;stroke-opacity:1"
           id="path52"
           inkscape:connector-curvature="0" /><text
           transform="matrix(1,0,0,-1,239.535,13.0648)"
           style="font-variant:normal;font-size:7px;font-family:f-0;-inkscape-font-specification:f-0-0;writing-mode:lr-tb;fill:#000000;fill-opacity:1;fill-rule:nonzero;stroke:none"
           id="text54"><tspan
             x="0 3.892 7.7839999"
             y="0"
             sodipodi:role="line"
             id="tspan56">100</tspan></text>
<path
           d="m 275.398,22.398 0,1.551 m 0,212.602 0,-1.551 M 293.5,22.398 l 0,1.551 m 0,212.602 0,-1.551 m 12.898,-212.602 0,1.551 m 0,212.602 0,-1.551 m 9.954,-212.602 0,1.551 m 0,212.602 0,-1.551 m 8.148,-212.602 0,1.551 m 0,212.602 0,-1.551 m 6.898,-212.602 0,1.551 m 0,212.602 0,-1.551 m 5.954,-212.602 0,1.551 m 0,212.602 0,-1.551 m 5.296,-212.602 0,1.551 m 0,212.602 0,-1.551 m 4.704,-212.602 0,3.153 m 0,211 0,-3.153"
           style="fill:none;stroke:#000000;stroke-width:0.5;stroke-linecap:butt;stroke-linejoin:miter;stroke-miterlimit:3.79999995;stroke-dasharray:none;stroke-opacity:1"
           id="path58"
           inkscape:connector-curvature="0" /><text
           transform="matrix(1,0,0,-1,340.54,13.0648)"
           style="font-variant:normal;font-size:7px;font-family:f-0;-inkscape-font-specification:f-0-0;writing-mode:lr-tb;fill:#000000;fill-opacity:1;fill-rule:nonzero;stroke:none"
           id="text60"><tspan
             x="0 3.892 7.7839999 11.676"
             y="0"
             sodipodi:role="line"
             id="tspan62">1000</tspan></text>
<path
           d="m 38.5,236.551 308.852,0 0,-214.152 -308.852,0 0,214.152 z"
           style="fill:none;stroke:#000000;stroke-width:0.5;stroke-linecap:butt;stroke-linejoin:miter;stroke-miterlimit:3.79999995;stroke-dasharray:none;stroke-opacity:1"
           id="path64"
           inkscape:connector-curvature="0" /><text
           transform="matrix(0,1,1,0,0,0)"
           style="font-variant:normal;font-size:9px;font-family:f-1;-inkscape-font-specification:f-1-0;writing-mode:lr-tb;fill:#000000;fill-opacity:1;fill-rule:nonzero;stroke:none"
           id="text66"
           x="32.93515"
           y="7.9104428"><tspan
             sodipodi:role="line"
             id="tspan68"
             x="32.93515"
             y="7.9104428"
             style="font-style:normal;font-variant:normal;font-weight:normal;font-stretch:normal;font-size:14px;font-family:'DejaVu Sans';-inkscape-font-specification:'DejaVu Sans'">normalised time</tspan></text>
<text
           transform="matrix(0,1,1,0,10.4,147.2832)"
           style="font-variant:normal;font-size:7.19999981px;font-family:f-1;-inkscape-font-specification:f-1-0;writing-mode:lr-tb;fill:#000000;fill-opacity:1;fill-rule:nonzero;stroke:none"
           id="text70"><tspan
             x="0"
             y="0"
             id="tspan72" /></text>
<text
           transform="matrix(0,1,1,0,7.7,149.6809)"
           style="font-variant:normal;font-size:9px;font-family:f-1;-inkscape-font-specification:f-1-0;writing-mode:lr-tb;fill:#000000;fill-opacity:1;fill-rule:nonzero;stroke:none"
           id="text74"><tspan
             x="0"
             y="0"
             id="tspan76" /></text>
</g></g><g
       id="g78"><g
         id="g80"
         clip-path="url(#clipPath82)"><g
           id="g86"
           clip-path="url(#clipPath88)"><text
             transform="matrix(0,1,1,0,7.7,152.1828)"
             style="font-variant:normal;font-size:9px;font-family:f-2;-inkscape-font-specification:f-2-1;writing-mode:lr-tb;fill:#000000;fill-opacity:1;fill-rule:nonzero;stroke:none"
             id="text92"><tspan
               x="0"
               y="0"
               id="tspan94" /></text>
</g></g></g><g
       id="g112"><g
         id="g114"
         clip-path="url(#clipPath116)"><g
           id="g120"
           clip-path="url(#clipPath122)"><text
             transform="matrix(1,0,0,-1,216.094,0.1)"
             style="font-variant:normal;font-size:7.19999981px;font-family:f-1;-inkscape-font-specification:f-1-0;writing-mode:lr-tb;fill:#000000;fill-opacity:1;fill-rule:nonzero;stroke:none"
             id="text126"><tspan
               x="0"
               y="0"
               id="tspan128">0</tspan></text>
</g></g></g><g
       id="g130"><g
         id="g132"
         clip-path="url(#clipPath134)"><text
           transform="matrix(1,0,0,-1,219.694,2.8)"
           style="font-variant:normal;font-size:9px;font-family:f-1;-inkscape-font-specification:f-1-0;writing-mode:lr-tb;fill:#000000;fill-opacity:1;fill-rule:nonzero;stroke:none"
           id="text138"><tspan
             x="0 2.5020001 5.4990001 12.501 17.000999 21.500999"
             y="0"
             sodipodi:role="line"
             id="tspan140">/(mgd)</tspan></text>
<text
           transform="matrix(1,0,0,-1,231.8044,56.8504)"
           style="font-variant:normal;font-size:9px;font-family:f-1;-inkscape-font-specification:f-1-0;writing-mode:lr-tb;fill:#000000;fill-opacity:1;fill-rule:nonzero;stroke:none"
           id="text142"><tspan
             sodipodi:role="line"
             id="tspan144"
             x="0"
             y="0">MPM Base friction 0.1</tspan></text>
<path
           d="m 80.75,137.273 0,3.153 m -1.574,-1.574 3.148,0 m 29.426,1.171 0,3.153 m -1.574,-1.574 3.148,0 m 16.574,0.472 0,3.153 m -1.574,-1.579 3.153,0 m 11.273,2.926 0,3.153 m -1.574,-1.579 3.148,0 m 8.375,-3.671 0,3.148 m -1.574,-1.574 3.148,0 m 6.579,1.875 0,3.148 m -1.579,-1.574 3.153,0 m 5.324,-0.727 0,3.153 m -1.574,-1.574 3.148,0 m 4.426,-1.329 0,3.153 m -1.574,-1.574 3.148,0 m 3.676,-0.727 0,3.148 m -1.574,-1.574 3.148,0 m 3.125,0.278 0,3.148 m -1.574,-1.574 3.148,0 m 29.426,5.222 0,3.153 m -1.574,-1.574 3.148,0 m 16.579,3.722 0,3.153 m -1.579,-1.579 3.153,0 m 11.273,2.625 0,3.153 m -1.574,-1.574 3.148,0 m 8.375,1.972 0,3.153 m -1.574,-1.579 3.153,0 m 6.574,1.375 0,3.153 m -1.574,-1.574 3.148,0 m 5.324,1.074 0,3.148 m -1.574,-1.574 3.148,0 m 4.426,0.926 0,3.148 m -1.574,-1.574 3.148,0 m 3.676,2.023 0,3.153 m -1.574,-1.574 3.148,0 m 3.125,-1.028 0,3.153 m -1.574,-1.579 3.153,0 m 40.722,-127.125 0,3.153 m -1.574,-1.574 3.148,0"
           style="fill:none;stroke:#ff0000;stroke-width:1.25;stroke-linecap:butt;stroke-linejoin:miter;stroke-miterlimit:3.79999995;stroke-dasharray:none;stroke-opacity:1"
           id="path146"
           inkscape:connector-curvature="0" /><text
           transform="matrix(1,0,0,-1,231.804,47.05)"
           style="font-variant:normal;font-size:9px;font-family:f-1;-inkscape-font-specification:f-1-0;writing-mode:lr-tb;fill:#000000;fill-opacity:1;fill-rule:nonzero;stroke:none"
           id="text148"><tspan
             x="0 8.0010004 13.005 21.006001 23.256001 29.259001 33.255001 36.756001 40.751999 43.001999 45.999001 48.995998 51.498001 55.493999 57.995998 60.498001 64.998001 69.498001 71.748001 76.248001 78.498001"
             y="0"
             sodipodi:role="line"
             id="tspan150">MPM Base friction 0.2</tspan></text>
<path
           d="m 79.176,99.875 3.148,-3.148 m -3.148,0 3.148,3.148 m 27.852,5.102 3.148,-3.153 m -3.148,0 3.148,3.153 m 15,2 3.153,-3.153 m -3.153,0 3.153,3.153 m 9.699,2.847 3.148,-3.148 m -3.148,0 3.148,3.148 m 6.801,2.852 3.148,-3.153 m -3.148,0 3.148,3.153 m 5,2.75 3.153,-3.153 m -3.153,0 3.153,3.153 m 3.75,0.199 3.148,-3.148 m -3.148,0 3.148,3.148 m 2.852,1.398 3.148,-3.148 m -3.148,0 3.148,3.148 m 2.102,1.551 3.148,-3.148 m -3.148,0 3.148,3.148 m 1.551,2.551 3.148,-3.148 m -3.148,0 3.148,3.148 m 27.852,7.301 3.148,-3.153 m -3.148,0 3.148,3.153 m 15,6.449 3.153,-3.148 m -3.153,0 3.153,3.148 m 9.699,4.102 3.148,-3.153 m -3.148,0 3.148,3.153 m 6.801,3.648 3.153,-3.148 m -3.153,0 3.153,3.148 m 5,3.148 3.148,-3.148 m -3.148,0 3.148,3.148 m 3.75,2.75 3.148,-3.148 m -3.148,0 3.148,3.148 m 2.852,2.454 3.148,-3.153 m -3.148,0 3.148,3.153 m 2.102,2.097 3.148,-3.148 m -3.148,0 3.148,3.148 m 1.551,2.051 3.153,-3.148 m -3.153,0 3.153,3.148 m 39.148,-103.5 3.148,-3.148 m -3.148,0 3.148,3.148"
           style="fill:none;stroke:#000000;stroke-width:1.25;stroke-linecap:butt;stroke-linejoin:miter;stroke-miterlimit:3.79999995;stroke-dasharray:none;stroke-opacity:1"
           id="path152"
           inkscape:connector-curvature="0" /><text
           transform="matrix(1,0,0,-1,231.804,37.25)"
           style="font-variant:normal;font-size:9px;font-family:f-1;-inkscape-font-specification:f-1-0;writing-mode:lr-tb;fill:#000000;fill-opacity:1;fill-rule:nonzero;stroke:none"
           id="text154"><tspan
             x="0 8.0010004 13.005 21.006001 23.256001 29.259001 33.255001 36.756001 40.751999 43.001999 45.999001 48.995998 51.498001 55.493999 57.995998 60.498001 64.998001 69.498001 71.748001 76.248001 78.498001"
             y="0"
             sodipodi:role="line"
             id="tspan156">MPM Base friction 0.3</tspan></text>
<path
           d="m 80.75,73.727 0,3.148 m -1.574,-1.574 3.148,0 m -3.148,1.574 3.148,-3.148 m -3.148,0 3.148,3.148 m 29.426,9.75 0,3.148 m -1.574,-1.574 3.148,0 m -3.148,1.574 3.148,-3.148 m -3.148,0 3.148,3.148 m 16.574,-1.046 0,3.148 m -1.574,-1.574 3.153,0 m -3.153,1.574 3.153,-3.148 m -3.153,0 3.153,3.148 m 11.273,0.398 0,3.153 m -1.574,-1.574 3.148,0 m -3.148,1.574 3.148,-3.153 m -3.148,0 3.148,3.153 m 8.375,1.051 0,3.148 m -1.574,-1.574 3.148,0 m -3.148,1.574 3.148,-3.148 m -3.148,0 3.148,3.148 m 6.579,-2.051 0,3.153 m -1.579,-1.579 3.153,0 m -3.153,1.579 3.153,-3.153 m -3.153,0 3.153,3.153 m 5.324,-2.051 0,3.148 m -1.574,-1.574 3.148,0 m -3.148,1.574 3.148,-3.148 m -3.148,0 3.148,3.148 m 4.426,-1 0,3.153 m -1.574,-1.579 3.148,0 m -3.148,1.579 3.148,-3.153 m -3.148,0 3.148,3.153 m 3.676,-1.153 0,3.153 m -1.574,-1.579 3.148,0 m -3.148,1.579 3.148,-3.153 m -3.148,0 3.148,3.153 m 3.125,-2.403 0,3.153 m -1.574,-1.579 3.148,0 m -3.148,1.579 3.148,-3.153 m -3.148,0 3.148,3.153 m 29.426,5.546 0,3.153 m -1.574,-1.574 3.148,0 m -3.148,1.574 3.148,-3.153 m -3.148,0 3.148,3.153 m 16.579,2.199 0,3.148 m -1.579,-1.574 3.153,0 m -3.153,1.574 3.153,-3.148 m -3.153,0 3.153,3.148 m 11.273,0.5 0,3.153 m -1.574,-1.574 3.148,0 m -3.148,1.574 3.148,-3.153 m -3.148,0 3.148,3.153 m 8.375,0.551 0,3.148 m -1.574,-1.574 3.153,0 m -3.153,1.574 3.153,-3.148 m -3.153,0 3.153,3.148 m 6.574,-0.148 0,3.148 m -1.574,-1.574 3.148,0 m -3.148,1.574 3.148,-3.148 m -3.148,0 3.148,3.148 m 5.324,-0.352 0,3.153 m -1.574,-1.574 3.148,0 m -3.148,1.574 3.148,-3.153 m -3.148,0 3.148,3.153"
           style="fill:none;stroke:#006300;stroke-width:1.25;stroke-linecap:butt;stroke-linejoin:miter;stroke-miterlimit:3.79999995;stroke-dasharray:none;stroke-opacity:1"
           id="path158"
           inkscape:connector-curvature="0" /><path
           d="m 276.699,132.625 0,3.148 m -1.574,-1.574 3.148,0 m -3.148,1.574 3.148,-3.148 m -3.148,0 3.148,3.148 m 3.676,-1.097 0,3.148 m -1.574,-1.574 3.148,0 m -3.148,1.574 3.148,-3.148 m -3.148,0 3.148,3.148 m 3.125,-1.301 0,3.153 m -1.574,-1.574 3.153,0 m -3.153,1.574 3.153,-3.153 m -3.153,0 3.153,3.153 m 40.722,-101 0,3.148 m -1.574,-1.574 3.148,0 m -3.148,1.574 3.148,-3.148 m -3.148,0 3.148,3.148"
           style="fill:none;stroke:#006300;stroke-width:1.25;stroke-linecap:butt;stroke-linejoin:miter;stroke-miterlimit:3.79999995;stroke-dasharray:none;stroke-opacity:1"
           id="path160"
           inkscape:connector-curvature="0" /><text
           transform="matrix(1,0,0,-1,231.804,27.45)"
           style="font-variant:normal;font-size:9px;font-family:f-1;-inkscape-font-specification:f-1-0;writing-mode:lr-tb;fill:#000000;fill-opacity:1;fill-rule:nonzero;stroke:none"
           id="text162"><tspan
             x="0 8.0010004 13.005 21.006001 23.256001 29.259001 33.255001 36.756001 40.751999 43.001999 45.999001 48.995998 51.498001 55.493999 57.995998 60.498001 64.998001 69.498001 71.748001 76.248001 78.498001"
             y="0"
             sodipodi:role="line"
             id="tspan164">MPM Base friction 0.4</tspan></text>
<path
           d="m 79.176,64.727 3.148,0 0,-3.152 -3.148,0 0,3.152 z"
           style="fill:none;stroke:#0000ff;stroke-width:1.25;stroke-linecap:butt;stroke-linejoin:miter;stroke-miterlimit:3.79999995;stroke-dasharray:none;stroke-opacity:1"
           id="path166"
           inkscape:connector-curvature="0" /><path
           d="m 80.75,63.148 0,0"
           style="fill:none;stroke:#0000ff;stroke-width:1.25;stroke-linecap:round;stroke-linejoin:miter;stroke-miterlimit:3.79999995;stroke-dasharray:none;stroke-opacity:1"
           id="path168"
           inkscape:connector-curvature="0" /><path
           d="m 110.176,74.727 3.148,0 0,-3.152 -3.148,0 0,3.152 z"
           style="fill:none;stroke:#0000ff;stroke-width:1.25;stroke-linecap:butt;stroke-linejoin:miter;stroke-miterlimit:3.79999995;stroke-dasharray:none;stroke-opacity:1"
           id="path170"
           inkscape:connector-curvature="0" /><path
           d="m 111.75,73.148 0,0"
           style="fill:none;stroke:#0000ff;stroke-width:1.25;stroke-linecap:round;stroke-linejoin:miter;stroke-miterlimit:3.79999995;stroke-dasharray:none;stroke-opacity:1"
           id="path172"
           inkscape:connector-curvature="0" /><path
           d="m 128.324,79.727 3.152,0 0,-3.152 -3.152,0 0,3.152 z"
           style="fill:none;stroke:#0000ff;stroke-width:1.25;stroke-linecap:butt;stroke-linejoin:miter;stroke-miterlimit:3.79999995;stroke-dasharray:none;stroke-opacity:1"
           id="path174"
           inkscape:connector-curvature="0" /><path
           d="m 129.898,78.148 0,0"
           style="fill:none;stroke:#0000ff;stroke-width:1.25;stroke-linecap:round;stroke-linejoin:miter;stroke-miterlimit:3.79999995;stroke-dasharray:none;stroke-opacity:1"
           id="path176"
           inkscape:connector-curvature="0" /><path
           d="m 141.176,83.273 3.148,0 0,-3.148 -3.148,0 0,3.148 z"
           style="fill:none;stroke:#0000ff;stroke-width:1.25;stroke-linecap:butt;stroke-linejoin:miter;stroke-miterlimit:3.79999995;stroke-dasharray:none;stroke-opacity:1"
           id="path178"
           inkscape:connector-curvature="0" /><path
           d="m 142.75,81.699 0,0"
           style="fill:none;stroke:#0000ff;stroke-width:1.25;stroke-linecap:round;stroke-linejoin:miter;stroke-miterlimit:3.79999995;stroke-dasharray:none;stroke-opacity:1"
           id="path180"
           inkscape:connector-curvature="0" /><path
           d="m 151.125,86.977 3.148,0 0,-3.152 -3.148,0 0,3.152 z"
           style="fill:none;stroke:#0000ff;stroke-width:1.25;stroke-linecap:butt;stroke-linejoin:miter;stroke-miterlimit:3.79999995;stroke-dasharray:none;stroke-opacity:1"
           id="path182"
           inkscape:connector-curvature="0" /><path
           d="m 152.699,85.398 0,0"
           style="fill:none;stroke:#0000ff;stroke-width:1.25;stroke-linecap:round;stroke-linejoin:miter;stroke-miterlimit:3.79999995;stroke-dasharray:none;stroke-opacity:1"
           id="path184"
           inkscape:connector-curvature="0" /><path
           d="m 159.273,88.574 3.152,0 0,-3.148 -3.152,0 0,3.148 z"
           style="fill:none;stroke:#0000ff;stroke-width:1.25;stroke-linecap:butt;stroke-linejoin:miter;stroke-miterlimit:3.79999995;stroke-dasharray:none;stroke-opacity:1"
           id="path186"
           inkscape:connector-curvature="0" /><path
           d="m 160.852,87 0,0"
           style="fill:none;stroke:#0000ff;stroke-width:1.25;stroke-linecap:round;stroke-linejoin:miter;stroke-miterlimit:3.79999995;stroke-dasharray:none;stroke-opacity:1"
           id="path188"
           inkscape:connector-curvature="0" /><path
           d="m 166.176,89.676 3.148,0 0,-3.152 -3.148,0 0,3.152 z"
           style="fill:none;stroke:#0000ff;stroke-width:1.25;stroke-linecap:butt;stroke-linejoin:miter;stroke-miterlimit:3.79999995;stroke-dasharray:none;stroke-opacity:1"
           id="path190"
           inkscape:connector-curvature="0" /><path
           d="m 167.75,88.102 0,0"
           style="fill:none;stroke:#0000ff;stroke-width:1.25;stroke-linecap:round;stroke-linejoin:miter;stroke-miterlimit:3.79999995;stroke-dasharray:none;stroke-opacity:1"
           id="path192"
           inkscape:connector-curvature="0" /><path
           d="m 172.176,91.824 3.148,0 0,-3.148 -3.148,0 0,3.148 z"
           style="fill:none;stroke:#0000ff;stroke-width:1.25;stroke-linecap:butt;stroke-linejoin:miter;stroke-miterlimit:3.79999995;stroke-dasharray:none;stroke-opacity:1"
           id="path194"
           inkscape:connector-curvature="0" /><path
           d="m 173.75,90.25 0,0"
           style="fill:none;stroke:#0000ff;stroke-width:1.25;stroke-linecap:round;stroke-linejoin:miter;stroke-miterlimit:3.79999995;stroke-dasharray:none;stroke-opacity:1"
           id="path196"
           inkscape:connector-curvature="0" /><path
           d="m 177.426,93.824 3.148,0 0,-3.148 -3.148,0 0,3.148 z"
           style="fill:none;stroke:#0000ff;stroke-width:1.25;stroke-linecap:butt;stroke-linejoin:miter;stroke-miterlimit:3.79999995;stroke-dasharray:none;stroke-opacity:1"
           id="path198"
           inkscape:connector-curvature="0" /><path
           d="m 179,92.25 0,0"
           style="fill:none;stroke:#0000ff;stroke-width:1.25;stroke-linecap:round;stroke-linejoin:miter;stroke-miterlimit:3.79999995;stroke-dasharray:none;stroke-opacity:1"
           id="path200"
           inkscape:connector-curvature="0" /><path
           d="m 182.125,94.824 3.148,0 0,-3.148 -3.148,0 0,3.148 z"
           style="fill:none;stroke:#0000ff;stroke-width:1.25;stroke-linecap:butt;stroke-linejoin:miter;stroke-miterlimit:3.79999995;stroke-dasharray:none;stroke-opacity:1"
           id="path202"
           inkscape:connector-curvature="0" /><path
           d="m 183.699,93.25 0,0"
           style="fill:none;stroke:#0000ff;stroke-width:1.25;stroke-linecap:round;stroke-linejoin:miter;stroke-miterlimit:3.79999995;stroke-dasharray:none;stroke-opacity:1"
           id="path204"
           inkscape:connector-curvature="0" /><path
           d="m 213.125,104.824 3.148,0 0,-3.148 -3.148,0 0,3.148 z"
           style="fill:none;stroke:#0000ff;stroke-width:1.25;stroke-linecap:butt;stroke-linejoin:miter;stroke-miterlimit:3.79999995;stroke-dasharray:none;stroke-opacity:1"
           id="path206"
           inkscape:connector-curvature="0" /><path
           d="m 214.699,103.25 0,0"
           style="fill:none;stroke:#0000ff;stroke-width:1.25;stroke-linecap:round;stroke-linejoin:miter;stroke-miterlimit:3.79999995;stroke-dasharray:none;stroke-opacity:1"
           id="path208"
           inkscape:connector-curvature="0" /><path
           d="m 231.273,110.375 3.152,0 0,-3.148 -3.152,0 0,3.148 z"
           style="fill:none;stroke:#0000ff;stroke-width:1.25;stroke-linecap:butt;stroke-linejoin:miter;stroke-miterlimit:3.79999995;stroke-dasharray:none;stroke-opacity:1"
           id="path210"
           inkscape:connector-curvature="0" /><path
           d="m 232.852,108.801 0,0"
           style="fill:none;stroke:#0000ff;stroke-width:1.25;stroke-linecap:round;stroke-linejoin:miter;stroke-miterlimit:3.79999995;stroke-dasharray:none;stroke-opacity:1"
           id="path212"
           inkscape:connector-curvature="0" /><path
           d="m 244.125,114.074 3.148,0 0,-3.148 -3.148,0 0,3.148 z"
           style="fill:none;stroke:#0000ff;stroke-width:1.25;stroke-linecap:butt;stroke-linejoin:miter;stroke-miterlimit:3.79999995;stroke-dasharray:none;stroke-opacity:1"
           id="path214"
           inkscape:connector-curvature="0" /><path
           d="m 245.699,112.5 0,0"
           style="fill:none;stroke:#0000ff;stroke-width:1.25;stroke-linecap:round;stroke-linejoin:miter;stroke-miterlimit:3.79999995;stroke-dasharray:none;stroke-opacity:1"
           id="path216"
           inkscape:connector-curvature="0" /><path
           d="m 254.074,117.727 3.152,0 0,-3.152 -3.152,0 0,3.152 z"
           style="fill:none;stroke:#0000ff;stroke-width:1.25;stroke-linecap:butt;stroke-linejoin:miter;stroke-miterlimit:3.79999995;stroke-dasharray:none;stroke-opacity:1"
           id="path218"
           inkscape:connector-curvature="0" /><path
           d="m 255.648,116.148 0,0"
           style="fill:none;stroke:#0000ff;stroke-width:1.25;stroke-linecap:round;stroke-linejoin:miter;stroke-miterlimit:3.79999995;stroke-dasharray:none;stroke-opacity:1"
           id="path220"
           inkscape:connector-curvature="0" /><path
           d="m 262.227,120.727 3.148,0 0,-3.152 -3.148,0 0,3.152 z"
           style="fill:none;stroke:#0000ff;stroke-width:1.25;stroke-linecap:butt;stroke-linejoin:miter;stroke-miterlimit:3.79999995;stroke-dasharray:none;stroke-opacity:1"
           id="path222"
           inkscape:connector-curvature="0" /><path
           d="m 263.801,119.148 0,0"
           style="fill:none;stroke:#0000ff;stroke-width:1.25;stroke-linecap:round;stroke-linejoin:miter;stroke-miterlimit:3.79999995;stroke-dasharray:none;stroke-opacity:1"
           id="path224"
           inkscape:connector-curvature="0" /><path
           d="m 269.125,123.523 3.148,0 0,-3.148 -3.148,0 0,3.148 z"
           style="fill:none;stroke:#0000ff;stroke-width:1.25;stroke-linecap:butt;stroke-linejoin:miter;stroke-miterlimit:3.79999995;stroke-dasharray:none;stroke-opacity:1"
           id="path226"
           inkscape:connector-curvature="0" /><path
           d="m 270.699,121.949 0,0"
           style="fill:none;stroke:#0000ff;stroke-width:1.25;stroke-linecap:round;stroke-linejoin:miter;stroke-miterlimit:3.79999995;stroke-dasharray:none;stroke-opacity:1"
           id="path228"
           inkscape:connector-curvature="0" /><path
           d="m 275.125,125.426 3.148,0 0,-3.152 -3.148,0 0,3.152 z"
           style="fill:none;stroke:#0000ff;stroke-width:1.25;stroke-linecap:butt;stroke-linejoin:miter;stroke-miterlimit:3.79999995;stroke-dasharray:none;stroke-opacity:1"
           id="path230"
           inkscape:connector-curvature="0" /><path
           d="m 276.699,123.852 0,0"
           style="fill:none;stroke:#0000ff;stroke-width:1.25;stroke-linecap:round;stroke-linejoin:miter;stroke-miterlimit:3.79999995;stroke-dasharray:none;stroke-opacity:1"
           id="path232"
           inkscape:connector-curvature="0" /><path
           d="m 280.375,127.477 3.148,0 0,-3.152 -3.148,0 0,3.152 z"
           style="fill:none;stroke:#0000ff;stroke-width:1.25;stroke-linecap:butt;stroke-linejoin:miter;stroke-miterlimit:3.79999995;stroke-dasharray:none;stroke-opacity:1"
           id="path234"
           inkscape:connector-curvature="0" /><path
           d="m 281.949,125.898 0,0"
           style="fill:none;stroke:#0000ff;stroke-width:1.25;stroke-linecap:round;stroke-linejoin:miter;stroke-miterlimit:3.79999995;stroke-dasharray:none;stroke-opacity:1"
           id="path236"
           inkscape:connector-curvature="0" /><path
           d="m 285.074,129.324 3.152,0 0,-3.148 -3.152,0 0,3.148 z"
           style="fill:none;stroke:#0000ff;stroke-width:1.25;stroke-linecap:butt;stroke-linejoin:miter;stroke-miterlimit:3.79999995;stroke-dasharray:none;stroke-opacity:1"
           id="path238"
           inkscape:connector-curvature="0" /><path
           d="m 286.648,127.75 0,0"
           style="fill:none;stroke:#0000ff;stroke-width:1.25;stroke-linecap:round;stroke-linejoin:miter;stroke-miterlimit:3.79999995;stroke-dasharray:none;stroke-opacity:1"
           id="path240"
           inkscape:connector-curvature="0" /><path
           d="m 327.375,32.023 3.148,0 0,-3.148 -3.148,0 0,3.148 z"
           style="fill:none;stroke:#0000ff;stroke-width:1.25;stroke-linecap:butt;stroke-linejoin:miter;stroke-miterlimit:3.79999995;stroke-dasharray:none;stroke-opacity:1"
           id="path242"
           inkscape:connector-curvature="0" /><path
           d="m 328.949,30.449 0,0"
           style="fill:none;stroke:#0000ff;stroke-width:1.25;stroke-linecap:round;stroke-linejoin:miter;stroke-miterlimit:3.79999995;stroke-dasharray:none;stroke-opacity:1"
           id="path244"
           inkscape:connector-curvature="0" /><path
           d="m 38.5,236.551 308.852,0 0,-214.152 -308.852,0 0,214.152 z"
           style="fill:none;stroke:#000000;stroke-width:0.5;stroke-linecap:butt;stroke-linejoin:miter;stroke-miterlimit:3.79999995;stroke-dasharray:none;stroke-opacity:1"
           id="path246"
           inkscape:connector-curvature="0" /><path
           d="M 287.203,127.848 214.574,102.535 M 183.82,93.309 80.672,63.027"
           style="fill:none;stroke:#0000ff;stroke-width:0.80000001;stroke-linecap:butt;stroke-linejoin:miter;stroke-miterlimit:4;stroke-dasharray:none;stroke-opacity:1"
           id="path248"
           inkscape:connector-curvature="0" /><path
           d="m 286.73,138.258 -72.628,-25.551 m -30.047,-7.57 C 80.438,75.094 80.438,74.855 80.438,74.855"
           style="fill:none;stroke:#008000;stroke-width:0.80000001;stroke-linecap:butt;stroke-linejoin:miter;stroke-miterlimit:4;stroke-dasharray:none;stroke-opacity:1"
           id="path250"
           inkscape:connector-curvature="0" /><path
           d="m 287.676,153.637 c -73.102,-27.918 -73.102,-27.68 -73.102,-27.68 m -30.519,-7.809 C 80.199,97.094 80.438,96.855 80.438,96.855"
           style="fill:none;stroke:#000000;stroke-width:0.80000001;stroke-linecap:butt;stroke-linejoin:miter;stroke-miterlimit:4;stroke-dasharray:none;stroke-opacity:1"
           id="path252"
           inkscape:connector-curvature="0" /><path
           d="M 286.969,185.336 214.34,158.84 m -30.758,-6.86 C 80.199,138.496 79.961,138.496 79.961,138.496"
           style="fill:none;stroke:#ff0000;stroke-width:0.80000001;stroke-linecap:butt;stroke-linejoin:miter;stroke-miterlimit:4;stroke-dasharray:none;stroke-opacity:1"
           id="path254"
           inkscape:connector-curvature="0" /></g></g></g></svg>